<svg xmlns="http://www.w3.org/2000/svg" viewBox="0 0 24 24" fill="none">
  <rect width="24" height="24" rx="6" fill="#25D366"/>
  <path d="M12 4a8 8 0 0 0-6.9 12L4 20l4.1-1.1A8 8 0 1 0 12 4zm0 14.5a6.5 6.5 0 0 1-3.3-.9l-.2-.1-2.4.6.6-2.3-.2-.2a6.5 6.5 0 1 1 5.5 3zm3.6-4.8c-.2-.1-1.2-.6-1.4-.7s-.3-.1-.5.1-.6.7-.7.8-.2.2-.5.1a4 4 0 0 1-1.2-.7 4.4 4.4 0 0 1-.8-1c-.1-.2 0-.3.1-.4l.3-.4c.1-.1.1-.2.2-.3s0-.2 0-.3-.5-1.2-.7-1.6-.4-.4-.5-.4h-.4l-.4.1a.8.8 0 0 0-.6.4 2.4 2.4 0 0 0-.8 1.9 4.2 4.2 0 0 0 .9 2 7.4 7.4 0 0 0 2.7 2.4l.8.3.9.1.7-.3.6-.6.3-.7-.1-.4z" fill="#fff"/>
</svg>
