<svg width="175" height="64" viewBox="0 0 175 64" fill="none" xmlns="http://www.w3.org/2000/svg">
<rect width="64" height="64" fill="#033529"/>
<path d="M53.3343 39.6909C51.8409 40.8109 50.0276 41.3975 48.2676 41.9309C46.2409 42.5709 44.1609 43.0508 42.0809 43.4775C41.0143 43.6908 39.8943 43.9575 38.8276 44.2242C37.9743 44.4375 37.1743 44.6509 36.3209 44.9709C35.5743 45.2375 34.8809 45.6108 34.3476 46.1442C33.6543 46.8375 32.9609 47.9042 32.9609 49.3975V55.7975H38.6143V52.6509C38.6143 52.1175 38.7209 51.5309 39.0409 51.1042C39.4143 50.5709 40.0009 50.3042 40.5876 50.0908C41.2809 49.8775 41.9209 49.7175 42.6143 49.5575C43.0409 49.4509 43.4676 49.3442 43.8943 49.2375C44.9609 48.9175 46.0276 48.5442 47.0943 48.1709C49.6009 47.3175 51.9476 45.6109 53.4409 43.3175C54.5609 41.6642 55.2543 39.6909 55.4143 37.6642C54.7743 38.4109 54.1716 39.0829 53.4249 39.6162L53.3343 39.6909Z" fill="white"/>
<path d="M27.4679 26.507C27.1479 26.1337 26.8279 25.7603 26.6146 25.3337C26.4013 24.8537 26.3479 24.3203 26.3479 23.787V14.987C26.3479 14.507 25.9213 14.0803 25.4413 14.0803C24.9613 14.0803 24.5346 14.4537 24.5346 14.987V31.5203C24.5346 31.5203 24.3746 33.067 25.8146 34.1337C26.5079 34.6137 27.2546 34.987 28.0013 35.3603C28.9613 35.787 30.0279 36.2137 31.0413 36.5337V32.2137C31.0413 31.6803 31.0413 31.147 30.8813 30.667C30.6679 30.027 30.2413 29.4937 29.8146 29.0137C29.3879 28.5337 28.9079 28.0537 28.4813 27.5737L27.4679 26.507Z" fill="white"/>
<path d="M34.0279 26.8268C34.4012 26.3468 34.8279 25.8668 34.9879 25.2268C35.2012 24.6401 35.1479 24.0001 34.9879 23.4135C34.7212 22.4535 34.2412 21.5468 33.7612 20.6401C33.6012 20.2668 33.4412 19.9468 33.2812 19.6268C33.1212 19.3601 33.0679 19.1468 32.9079 18.8268V9.44013C32.9079 8.96013 32.5345 8.53346 32.0012 8.53346C31.4679 8.53346 31.0945 8.9068 31.0945 9.44013V18.7735C30.9345 19.0935 30.8279 19.3068 30.7212 19.5735C30.5612 19.8935 30.4012 20.1601 30.2412 20.4801C29.7612 21.4401 29.2812 22.3468 29.0145 23.3601C28.8545 23.9468 28.8545 24.5868 29.0145 25.1735C29.2279 25.7601 29.6012 26.2935 29.9745 26.7735L32.0119 28.9601L34.0279 26.8268Z" fill="white"/>
<path d="M45.2273 41.1732C46.0807 41.0132 46.8807 40.7999 47.734 40.5332C49.6007 39.9466 51.414 39.0932 52.9607 37.8132C54.3473 36.6932 55.5207 35.2532 56.374 33.5999C56.9073 32.5866 57.2807 31.5199 57.6007 30.4532C56.8007 31.1999 56.102 31.7706 55.142 32.2719L54.934 32.3732C53.0673 33.2799 50.9873 33.7599 48.9607 34.1332C47.7873 34.3466 46.5607 34.5599 45.334 34.7199C44.9607 34.7786 44.6407 34.8266 44.2673 34.8799C42.5073 35.0932 40.694 35.3599 38.9873 35.7866C37.8673 36.0532 36.8007 36.4266 35.7873 37.0132C35.094 37.3866 34.4007 37.8132 33.9207 38.4532C33.494 38.9866 33.174 39.6266 33.0673 40.3199C32.9073 41.1732 32.9767 42.0159 32.9607 42.9332C32.9607 43.6799 32.9607 44.6399 32.9607 45.3866C33.494 44.8532 34.0807 44.3199 34.8273 43.9466C36.0007 43.3599 37.2807 42.9866 38.5073 42.6666C39.894 42.2932 42.774 41.7066 42.774 41.7066L45.2273 41.1732Z" fill="white"/>
<path d="M21.2271 41.7066C21.2271 41.7066 24.1071 42.2932 25.4937 42.6666C26.7204 42.9866 28.0004 43.3599 29.1737 43.9466C29.9204 44.3199 30.5071 44.8532 31.0404 45.3866C31.0404 44.6399 31.0404 43.6799 31.0404 42.9332C31.0244 42.0159 31.0937 41.1732 30.9337 40.3199C30.8271 39.6266 30.5071 38.9866 30.0804 38.4532C29.6004 37.8132 28.9071 37.3866 28.2137 37.0132C27.2004 36.4266 26.1337 36.0532 25.0137 35.7866C23.3071 35.3599 21.4937 35.0932 19.7337 34.8799C19.3604 34.8266 19.0404 34.7786 18.6671 34.7199C17.4404 34.5599 16.2137 34.3466 15.0404 34.1332C13.0137 33.7599 10.9337 33.2799 9.06706 32.3732L8.85906 32.2719C7.89906 31.7706 7.20039 31.1999 6.40039 30.4532C6.72039 31.5199 7.09372 32.5866 7.62706 33.5999C8.48039 35.2532 9.65372 36.6932 11.0404 37.8132C12.5871 39.0932 14.4004 39.9466 16.2671 40.5332C17.1204 40.7999 17.9204 41.0132 18.7737 41.1732L21.2271 41.7066Z" fill="white"/>
<path d="M35.5209 27.5737C35.0943 28.0537 34.6143 28.5337 34.1876 29.0137C33.7609 29.4937 33.3343 30.027 33.1209 30.667C32.9609 31.147 32.9609 31.6803 32.9609 32.2137V36.5337C33.9743 36.2137 35.0409 35.787 36.0009 35.3603C36.7476 34.987 37.4943 34.6137 38.1876 34.1337C39.6276 33.067 39.4676 31.5203 39.4676 31.5203V26.6137V14.987C39.4676 14.4537 39.0409 14.0803 38.5609 14.0803C38.0809 14.0803 37.6543 14.507 37.6543 14.987V23.787C37.6543 24.3203 37.6009 24.8537 37.3876 25.3337C37.1743 25.7603 36.8543 26.1337 36.5343 26.507L35.5209 27.5737Z" fill="white"/>
<path d="M10.5753 39.6162C9.8286 39.0829 9.22594 38.4109 8.58594 37.6642C8.74594 39.6909 9.43927 41.6642 10.5593 43.3175C12.0526 45.6109 14.3993 47.3175 16.9059 48.1709C17.9726 48.5442 19.0393 48.9175 20.1059 49.2375C20.5326 49.3442 20.9593 49.4509 21.3859 49.5575C22.0793 49.7175 22.7193 49.8775 23.4126 50.0908C23.9993 50.3042 24.5859 50.5709 24.9593 51.1042C25.2793 51.5309 25.3859 52.1175 25.3859 52.6509V54.0375C25.3859 54.6775 25.3859 55.2109 25.3859 55.7975H28.3726C29.2259 55.7975 30.1859 55.7975 31.0393 55.7975V50.3042C31.0393 49.8242 31.0393 49.9309 31.0393 49.3975C31.0393 47.9042 30.3459 46.8375 29.6526 46.1442C29.1193 45.6108 28.4259 45.2375 27.6793 44.9709C26.8259 44.6509 26.0259 44.4375 25.1726 44.2242C24.1059 43.9575 22.9859 43.6908 21.9193 43.4775C19.8393 43.0508 17.7593 42.5709 15.7326 41.9309C13.9726 41.3975 12.1593 40.8109 10.6659 39.6909L10.5753 39.6162Z" fill="white"/>
<rect width="106.667" height="64" transform="translate(68.2676)" fill="#033529"/>
<path d="M154.483 33.843C156.355 33.843 157.898 34.0719 159.112 34.5299C160.327 34.9878 161.233 35.6847 161.83 36.6206C162.427 37.5365 162.726 38.7013 162.726 40.115C162.726 41.1503 162.527 42.0364 162.129 42.7731C161.75 43.5098 161.253 44.127 160.635 44.6248C160.018 45.1027 159.351 45.491 158.634 45.7896L164.757 55.1678H160.456L155.349 46.7454H152.243V55.1678H148.42V33.843H154.483ZM154.244 37.0387H152.243V43.6094H154.363C155.419 43.6094 156.275 43.4799 156.932 43.2211C157.589 42.9622 158.067 42.5839 158.366 42.0862C158.684 41.5884 158.843 40.9711 158.843 40.2344C158.843 39.4579 158.674 38.8406 158.336 38.3827C157.997 37.9048 157.489 37.5663 156.812 37.3672C156.155 37.1482 155.299 37.0387 154.244 37.0387Z" fill="white"/>
<path d="M142.187 55.249L140.246 49.6042H132.212L130.3 55.249H126.238L134.063 33.8346H138.424L146.249 55.249H142.187ZM137.408 40.8234C137.329 40.5447 137.209 40.1664 137.05 39.6885C136.891 39.2106 136.731 38.7228 136.572 38.225C136.433 37.7073 136.323 37.2792 136.244 36.9408C136.144 37.339 136.015 37.7969 135.855 38.3146C135.716 38.8323 135.577 39.3201 135.437 39.7781C135.318 40.236 135.218 40.5845 135.139 40.8234L133.257 46.3189H139.26L137.408 40.8234Z" fill="white"/>
<path d="M123.999 55.1594H115.039V52.9792L117.608 52.0234V37.0005L115.039 36.0149V33.8346H123.999V36.0149L121.431 37.0005V52.0234L123.999 52.9792V55.1594Z" fill="white"/>
<path d="M104.461 43.4603H112.525V54.3019C111.39 54.6802 110.225 54.9689 109.031 55.168C107.836 55.3671 106.482 55.4667 104.969 55.4667C102.818 55.4667 100.997 55.0386 99.5032 54.1824C98.0099 53.3262 96.8749 52.0818 96.0984 50.4491C95.3219 48.8163 94.9336 46.8252 94.9336 44.4757C94.9336 42.2457 95.3716 40.3143 96.2477 38.6816C97.1238 37.0489 98.3782 35.7845 100.011 34.8885C101.664 33.9925 103.675 33.5445 106.044 33.5445C107.199 33.5445 108.314 33.664 109.389 33.9029C110.484 34.1219 111.48 34.4306 112.376 34.8288L111.062 37.9648C110.385 37.6263 109.598 37.3475 108.702 37.1285C107.826 36.8896 106.91 36.7701 105.954 36.7701C104.501 36.7701 103.246 37.0887 102.191 37.7259C101.136 38.363 100.32 39.269 99.7421 40.4437C99.1846 41.5986 98.9059 42.9625 98.9059 44.5355C98.9059 46.0487 99.1249 47.3927 99.5629 48.5675C100.001 49.7223 100.698 50.6283 101.654 51.2853C102.609 51.9225 103.854 52.2411 105.387 52.2411C105.905 52.2411 106.353 52.2212 106.731 52.1813C107.129 52.1415 107.488 52.0917 107.806 52.032C108.145 51.9723 108.463 51.9125 108.762 51.8528V46.7157H104.461V43.4603Z" fill="white"/>
<path d="M86.8957 36.7701C85.9201 36.7701 85.0539 36.9493 84.2973 37.3077C83.5407 37.6661 82.8936 38.1838 82.356 38.8608C81.8383 39.5378 81.4401 40.3541 81.1613 41.3099C80.9025 42.2656 80.773 43.3408 80.773 44.5355C80.773 46.1483 80.9921 47.5321 81.4301 48.6869C81.8682 49.8219 82.5352 50.698 83.4312 51.3152C84.3471 51.9324 85.492 52.2411 86.8658 52.2411C87.7818 52.2411 88.6578 52.1515 89.4941 51.9723C90.3503 51.7731 91.2463 51.5143 92.1821 51.1957V54.4512C91.306 54.8096 90.42 55.0684 89.524 55.2277C88.6479 55.387 87.6324 55.4667 86.4776 55.4667C84.2874 55.4667 82.4754 55.0187 81.0418 54.1227C79.6082 53.2068 78.543 51.9324 77.8461 50.2997C77.1492 48.6471 76.8008 46.7157 76.8008 44.5056C76.8008 42.8928 77.0198 41.4194 77.4578 40.0853C77.9158 38.7513 78.5629 37.5964 79.3992 36.6208C80.2554 35.6451 81.3106 34.8885 82.565 34.3509C83.8194 33.8133 85.263 33.5445 86.8957 33.5445C87.9709 33.5445 89.0262 33.6739 90.0616 33.9328C91.1169 34.1717 92.1025 34.5102 93.0184 34.9483L91.7042 38.0843C90.9476 37.7458 90.1611 37.4471 89.3448 37.1883C88.5483 36.9095 87.732 36.7701 86.8957 36.7701Z" fill="white"/>
</svg>
